<?xml version="1.0" encoding="UTF-8"?>
<svg version="1.1" xmlns="http://www.w3.org/2000/svg" width="500" height="500">
<path d="M0 0 C165 0 330 0 500 0 C500 165 500 330 500 500 C335 500 170 500 0 500 C0 335 0 170 0 0 Z " fill="#FEFEFE" transform="translate(0,0)"/>
<path d="M0 0 C3.04317386 -0.13558695 6.08025562 -0.23437239 9.125 -0.3125 C10.40890625 -0.3753418 10.40890625 -0.3753418 11.71875 -0.43945312 C16.07520185 -0.52323105 19.08258979 -0.4369972 22.58203125 2.33203125 C25 5 25 5 25.5625 8 C24.9445923 11.29550775 23.99298985 13.31712904 22 16 C21.34 16.33 20.68 16.66 20 17 C20.5053125 17.35191406 21.010625 17.70382813 21.53125 18.06640625 C26.82410769 22.08855803 26.82410769 22.08855803 27.6875 26.5625 C26.89841216 30.50793918 25.86810219 32.21156732 23 35 C20.0206664 36.79596819 17.69226541 37.28106672 14.234375 37.4140625 C13.34492188 37.45273437 12.45546875 37.49140625 11.5390625 37.53125 C10.61867187 37.5621875 9.69828125 37.593125 8.75 37.625 C7.81414062 37.66367187 6.87828125 37.70234375 5.9140625 37.7421875 C3.60956946 37.83624844 1.30507987 37.92189399 -1 38 C-1 37.01 -1 36.02 -1 35 C0.32 34.34 1.64 33.68 3 33 C3.33 23.1 3.66 13.2 4 3 C2.68 3 1.36 3 0 3 C0 2.01 0 1.02 0 0 Z " fill="#0D0D0D" transform="translate(189,231)"/>
<path d="M0 0 C0.66 0 1.32 0 2 0 C2.33 1.258125 2.66 2.51625 3 3.8125 C6.84789428 16.55411219 12.13554282 29.22011476 20 40 C20.55300781 40.76183594 21.10601562 41.52367187 21.67578125 42.30859375 C39.29363346 65.67756094 62.51474401 82.37978332 90.99316406 89.49609375 C92.83363145 89.95822571 94.66364011 90.46150195 96.4921875 90.96875 C126.8558589 98.40475116 160.65824518 90.95408675 187.14550781 75.15722656 C215.39658083 57.52819995 232.51371037 31.33212006 242 0 C242.66 0 243.32 0 244 0 C242.76133521 24.77329582 223.31145077 49.3276985 205.67822266 65.52001953 C195.33677553 74.63987006 183.32979323 80.98460028 171 87 C169.61361328 87.680625 169.61361328 87.680625 168.19921875 88.375 C160.25860101 91.88587762 151.47053472 93.28542653 143 95 C142.22245361 95.17869629 141.44490723 95.35739258 140.64379883 95.54150391 C135.16446711 96.49174723 129.54588533 96.18471312 124 96.1875 C122.12248047 96.20586914 122.12248047 96.20586914 120.20703125 96.22460938 C111.94852699 96.23744643 104.11588793 95.50583781 96 94 C94.93354248 93.80873535 93.86708496 93.6174707 92.76831055 93.42041016 C63.58541556 87.91922145 35.47162853 67.85067872 18.7265625 43.62890625 C0 15.11538462 0 15.11538462 0 0 Z " fill="#202020" transform="translate(128,280)"/>
<path d="M0 0 C2.17252464 -0.00960126 4.34405838 -0.0406218 6.51635742 -0.07226562 C26.99932744 -0.22661922 45.35162803 5.55130067 63.2722168 15.24023438 C64.64893555 15.98273438 64.64893555 15.98273438 66.0534668 16.74023438 C95.50716113 33.57091685 115.19718228 60.90531409 124.2722168 93.24023438 C123.2822168 92.91023438 122.2922168 92.58023438 121.2722168 92.24023438 C120.29542218 89.76021066 119.48264729 87.34624099 118.7097168 84.80273438 C114.1464757 70.93089601 107.02444785 58.1420408 97.2722168 47.24023438 C96.56452148 46.41394531 95.85682617 45.58765625 95.12768555 44.73632812 C75.84770363 22.62006166 50.86018631 9.93474243 22.2722168 4.24023438 C21.36729492 4.05460937 20.46237305 3.86898437 19.5300293 3.67773438 C-12.7093685 -0.65177708 -46.6838861 8.20890052 -72.5480957 27.74023438 C-93.81751113 44.26757452 -109.25862032 66.29472119 -116.7277832 92.24023438 C-117.3877832 92.24023438 -118.0477832 92.24023438 -118.7277832 92.24023438 C-118.22659919 86.0728867 -116.80321545 81.22159664 -114.2277832 75.61523438 C-113.69592407 74.44335571 -113.69592407 74.44335571 -113.15332031 73.24780273 C-99.17375339 43.28111141 -73.80921607 19.90929296 -43.2902832 7.42773438 C-29.22515229 2.34670583 -14.90740987 0.03966055 0 0 Z " fill="#1C1C1C" transform="translate(247.727783203125,123.759765625)"/>
<path d="M0 0 C5.61 0 11.22 0 17 0 C17 0.66 17 1.32 17 2 C15.68 2.33 14.36 2.66 13 3 C14.25805377 7.50802601 15.90407165 10.4912812 19 14 C20.00873016 12.73608512 21.00671822 11.46359117 22 10.1875 C22.556875 9.47980469 23.11375 8.77210938 23.6875 8.04296875 C25.27025683 5.98404001 25.27025683 5.98404001 25 3 C24.34 2.67 23.68 2.34 23 2 C23 1.34 23 0.68 23 0 C26.96 0 30.92 0 35 0 C35 0.99 35 1.98 35 3 C33.33751662 4.00693931 31.66994576 5.00548558 30 6 C28.32825905 7.83652305 26.72486856 9.73710705 25.1875 11.6875 C24.39730469 12.68136719 23.60710937 13.67523438 22.79296875 14.69921875 C22.20128906 15.45847656 21.60960937 16.21773437 21 17 C26.677017 27.45525701 26.677017 27.45525701 36 34 C36 34.99 36 35.98 36 37 C30.72 37 25.44 37 20 37 C20 36.34 20 35.68 20 35 C22.475 34.505 22.475 34.505 25 34 C23.88368586 32.16136495 22.75670373 30.32920277 21.625 28.5 C20.99851562 27.4790625 20.37203125 26.458125 19.7265625 25.40625 C19.15679687 24.6121875 18.58703125 23.818125 18 23 C17.34 23 16.68 23 16 23 C14.44600784 24.68163495 14.44600784 24.68163495 12.9375 26.8125 C12.41027344 27.52019531 11.88304687 28.22789062 11.33984375 28.95703125 C9.83972598 31.05442711 9.83972598 31.05442711 9 34 C9.99 34 10.98 34 12 34 C12 34.99 12 35.98 12 37 C8.04 37 4.08 37 0 37 C0 36.01 0 35.02 0 34 C1.35279337 33.16751177 2.7069408 32.33717247 4.06640625 31.515625 C8.41861684 28.10419528 11.62761749 23.34662634 15 19 C13.92333797 17.2458877 12.83836661 15.49687413 11.75 13.75 C11.14671875 12.77546875 10.5434375 11.8009375 9.921875 10.796875 C6.64652153 6.01620519 6.64652153 6.01620519 1.75 3.25 C1.1725 3.1675 0.595 3.085 0 3 C0 2.01 0 1.02 0 0 Z " fill="#0D0D0D" transform="translate(380,231)"/>
<path d="M0 0 C8.25 0 16.5 0 25 0 C24.67 3.3 24.34 6.6 24 10 C23.01 10 22.02 10 21 10 C21 8.02 21 6.04 21 4 C17.37 4 13.74 4 10 4 C9.67 8.29 9.34 12.58 9 17 C12.96 17 16.92 17 21 17 C20.67 18.32 20.34 19.64 20 21 C16.04 21 12.08 21 8 21 C8.33 24.96 8.66 28.92 9 33 C10.98 33.33 12.96 33.66 15 34 C15 34.99 15 35.98 15 37 C10.05 37 5.1 37 0 37 C0.33 36.01 0.66 35.02 1 34 C1.99 33.505 1.99 33.505 3 33 C3.33 23.1 3.66 13.2 4 3 C2.68 3 1.36 3 0 3 C0 2.01 0 1.02 0 0 Z " fill="#161616" transform="translate(86,231)"/>
<path d="M0 0 C2.76142665 1.01736771 3.68085371 1.36170741 5 4 C5 6.64 5 9.28 5 12 C-0.28 12 -5.56 12 -11 12 C-10.34 15.3 -9.68 18.6 -9 22 C-1.96104355 23.0352425 -1.96104355 23.0352425 5 22 C4 25 4 25 1.375 26.75 C-2.70144515 28.2597945 -4.82508633 28.13861282 -9 27 C-12.91207911 24.56581744 -14.87863397 22.4854641 -16 18 C-16.45503372 13.22214592 -16.52947247 11.01972475 -14.3125 6.75 C-9.82063987 1.4083285 -7.20138956 -0.78560613 0 0 Z " fill="#0F0F0F" transform="translate(325,241)"/>
<path d="M0 0 C0.33 0.99 0.66 1.98 1 3 C1.680625 2.484375 2.36125 1.96875 3.0625 1.4375 C6.87319838 -0.42730984 8.9412538 -0.05226753 13 1 C14.69262695 2.24926758 14.69262695 2.24926758 16 4 C16.34057617 6.26831055 16.34057617 6.26831055 16.29296875 8.88671875 C16.28330078 9.82451172 16.27363281 10.76230469 16.26367188 11.72851562 C16.23853516 12.70498047 16.21339844 13.68144531 16.1875 14.6875 C16.16719727 16.16959961 16.16719727 16.16959961 16.14648438 17.68164062 C16.11112203 20.12164231 16.06177033 22.56054719 16 25 C16.99 25 17.98 25 19 25 C19 25.66 19 26.32 19 27 C15.37 27 11.74 27 8 27 C8 26.34 8 25.68 8 25 C8.99 24.34 9.98 23.68 11 23 C11.27613568 20.24458159 11.37257625 17.74908898 11.3125 15 C11.31572266 14.26265625 11.31894531 13.5253125 11.32226562 12.765625 C11.41918962 8.41523711 11.41918962 8.41523711 9 5 C5.46782421 5.32110689 2.36550494 5.87816502 -1 7 C-1 12.61 -1 18.22 -1 24 C0.32 24 1.64 24 3 24 C3 24.99 3 25.98 3 27 C-0.63 27 -4.26 27 -8 27 C-8 26.34 -8 25.68 -8 25 C-7.34 24.67 -6.68 24.34 -6 24 C-6 17.73 -6 11.46 -6 5 C-6.66 4.67 -7.32 4.34 -8 4 C-8 3.01 -8 2.02 -8 1 C-5.23735711 0.40267181 -2.83967231 0 0 0 Z " fill="#101010" transform="translate(289,241)"/>
<path d="M0 0 C-0.16113281 0.83015625 -0.32226562 1.6603125 -0.48828125 2.515625 C-1.04406503 6.30004585 -1.1686059 9.92583369 -1.1875 13.75 C-1.20167969 15.06484375 -1.21585938 16.3796875 -1.23046875 17.734375 C-1.3526284 21.08442008 -1.3526284 21.08442008 1 23 C4.18819752 22.66083005 6.95781049 22.01406317 10 21 C9.67 15.72 9.34 10.44 9 5 C8.01 4.67 7.02 4.34 6 4 C6 3.01 6 2.02 6 1 C10.455 0.505 10.455 0.505 15 0 C14.67 7.59 14.34 15.18 14 23 C15.98 22.67 17.96 22.34 20 22 C19.3125 24.4375 19.3125 24.4375 18 27 C15.625 28.0625 15.625 28.0625 13 28 C10.6875 26.0625 10.6875 26.0625 9 24 C7.700625 25.0209375 7.700625 25.0209375 6.375 26.0625 C3 28 3 28 -0.1875 27.9375 C-3.11639598 26.96120134 -4.1447823 26.39501555 -6 24 C-6.34057617 21.82348633 -6.34057617 21.82348633 -6.29296875 19.33203125 C-6.28330078 18.43935547 -6.27363281 17.54667969 -6.26367188 16.62695312 C-6.23853516 15.69818359 -6.21339844 14.76941406 -6.1875 13.8125 C-6.16719727 12.40194336 -6.16719727 12.40194336 -6.14648438 10.96289062 C-6.11113096 8.64134962 -6.06178674 6.32096347 -6 4 C-6.99 4 -7.98 4 -9 4 C-9 3.34 -9 2.68 -9 2 C-5.62902617 0.50178941 -3.79557881 0 0 0 Z " fill="#111111" transform="translate(227,241)"/>
<path d="M0 0 C1.22589844 0.01353516 1.22589844 0.01353516 2.4765625 0.02734375 C3.41628906 0.04474609 3.41628906 0.04474609 4.375 0.0625 C5.25340996 3.15970845 5.36935406 4.96895403 4.375 8.0625 C3.715 8.0625 3.055 8.0625 2.375 8.0625 C1.715 6.7425 1.055 5.4225 0.375 4.0625 C-1.605 4.0625 -3.585 4.0625 -5.625 4.0625 C-5.955 5.7125 -6.285 7.3625 -6.625 9.0625 C-5.944375 9.289375 -5.26375 9.51625 -4.5625 9.75 C-0.84806603 11.40964071 2.55975725 13.06689351 5.375 16.0625 C6.125 19.625 6.125 19.625 5.375 23.0625 C2.80340093 25.63409907 0.23492115 27.93075559 -3.5 28.1953125 C-4.20125 28.19273437 -4.9025 28.19015625 -5.625 28.1875 C-6.676875 28.19136719 -6.676875 28.19136719 -7.75 28.1953125 C-9.625 28.0625 -9.625 28.0625 -11.625 27.0625 C-11.625 24.0925 -11.625 21.1225 -11.625 18.0625 C-10.635 18.0625 -9.645 18.0625 -8.625 18.0625 C-7.965 20.0425 -7.305 22.0225 -6.625 24.0625 C-4.645 24.0625 -2.665 24.0625 -0.625 24.0625 C0.035 22.4125 0.695 20.7625 1.375 19.0625 C0.3540625 18.7221875 0.3540625 18.7221875 -0.6875 18.375 C-5.58094929 16.18856521 -9.75069456 14.16083305 -11.875 9.0625 C-11.625 6.0625 -11.625 6.0625 -9.3125 3.25 C-5.84283317 0.42585258 -4.36681606 -0.06238309 0 0 Z " fill="#151515" transform="translate(344.625,240.9375)"/>
<path d="M0 0 C1.22589844 0.01353516 1.22589844 0.01353516 2.4765625 0.02734375 C3.41628906 0.04474609 3.41628906 0.04474609 4.375 0.0625 C5.25340996 3.15970845 5.36935406 4.96895403 4.375 8.0625 C3.715 8.0625 3.055 8.0625 2.375 8.0625 C1.715 6.7425 1.055 5.4225 0.375 4.0625 C-1.605 4.0625 -3.585 4.0625 -5.625 4.0625 C-5.955 5.7125 -6.285 7.3625 -6.625 9.0625 C-5.944375 9.289375 -5.26375 9.51625 -4.5625 9.75 C-0.84806603 11.40964071 2.55975725 13.06689351 5.375 16.0625 C6.125 19.625 6.125 19.625 5.375 23.0625 C2.80340093 25.63409907 0.23492115 27.93075559 -3.5 28.1953125 C-4.20125 28.19273437 -4.9025 28.19015625 -5.625 28.1875 C-6.676875 28.19136719 -6.676875 28.19136719 -7.75 28.1953125 C-9.625 28.0625 -9.625 28.0625 -11.625 27.0625 C-11.625 24.0925 -11.625 21.1225 -11.625 18.0625 C-10.635 18.0625 -9.645 18.0625 -8.625 18.0625 C-7.965 20.0425 -7.305 22.0225 -6.625 24.0625 C-4.645 24.0625 -2.665 24.0625 -0.625 24.0625 C0.035 22.4125 0.695 20.7625 1.375 19.0625 C0.3540625 18.7221875 0.3540625 18.7221875 -0.6875 18.375 C-5.58094929 16.18856521 -9.75069456 14.16083305 -11.875 9.0625 C-11.625 6.0625 -11.625 6.0625 -9.3125 3.25 C-5.84283317 0.42585258 -4.36681606 -0.06238309 0 0 Z " fill="#151515" transform="translate(154.625,240.9375)"/>
<path d="M0 0 C0.79953138 3.28696233 1.09658936 4.71023192 0 8 C-0.66 8 -1.32 8 -2 8 C-2 6.68 -2 5.36 -2 4 C-4.97 4 -7.94 4 -11 4 C-9.64229221 8.49983152 -7.84004236 10.21194367 -3.9375 12.75 C-3.03902344 13.34296875 -2.14054687 13.9359375 -1.21484375 14.546875 C-0.48394531 15.02640625 0.24695313 15.5059375 1 16 C2 17 2 17 2.375 19.25 C1.84170601 23.16082263 -0.03677615 24.51916143 -3 27 C-7.47254497 28.49084832 -11.52745503 28.49084832 -16 27 C-15.505 22.545 -15.505 22.545 -15 18 C-14.34 18 -13.68 18 -13 18 C-12.34 19.98 -11.68 21.96 -11 24 C-8.36 24 -5.72 24 -3 24 C-3.11476507 21.59936829 -3.11476507 21.59936829 -4 19 C-6.24312166 17.17479993 -6.24312166 17.17479993 -9 15.8125 C-13.91739553 13.16520894 -13.91739553 13.16520894 -15 11 C-15.4375 8.1875 -15.4375 8.1875 -15 5 C-10.48618365 -0.32398851 -6.75219815 -0.67521982 0 0 Z " fill="#111111" transform="translate(369,241)"/>
<path d="M0 0 C0 2.64 0 5.28 0 8 C-0.66 8 -1.32 8 -2 8 C-2.66 6.68 -3.32 5.36 -4 4 C-5.98 4 -7.96 4 -10 4 C-10.33 5.32 -10.66 6.64 -11 8 C-10.21753906 8.42410156 -9.43507812 8.84820312 -8.62890625 9.28515625 C-0.38832707 14.06154291 -0.38832707 14.06154291 1.5 18.625 C0.85871373 22.95368234 -0.6161756 24.32441791 -4 27 C-6.24512262 28.12256131 -7.51456649 28.13413762 -10 28.125 C-11.051875 28.12886719 -11.051875 28.12886719 -12.125 28.1328125 C-14 28 -14 28 -16 27 C-16 24.03 -16 21.06 -16 18 C-15.34 18 -14.68 18 -14 18 C-13.01 19.98 -12.02 21.96 -11 24 C-9.02 24 -7.04 24 -5 24 C-4.67 22.68 -4.34 21.36 -4 20 C-4.78246094 19.43410156 -5.56492187 18.86820312 -6.37109375 18.28515625 C-7.38300781 17.55167969 -8.39492187 16.81820313 -9.4375 16.0625 C-10.95150391 14.96615234 -10.95150391 14.96615234 -12.49609375 13.84765625 C-15 12 -15 12 -16 11 C-15.91784285 6.64567105 -15.66708034 4.65040333 -12.5 1.5625 C-8.13761657 -0.3849926 -4.69422357 -0.37553789 0 0 Z " fill="#0D0D0D" transform="translate(264,241)"/>
<path d="M0 0 C0.33 1.32 0.66 2.64 1 4 C1.7425 3.34 2.485 2.68 3.25 2 C6 0 6 0 10 0 C9.67 2.97 9.34 5.94 9 9 C8.01 9 7.02 9 6 9 C6 8.01 6 7.02 6 6 C2.75016865 7.08784968 2.75016865 7.08784968 0 9 C-0.23653523 11.52596259 -0.42173692 14.03107207 -0.5625 16.5625 C-0.60568359 17.27341797 -0.64886719 17.98433594 -0.69335938 18.71679688 C-0.79971777 20.47761912 -0.90038846 22.2387832 -1 24 C0.65 24 2.3 24 4 24 C4 24.99 4 25.98 4 27 C0.04 27 -3.92 27 -8 27 C-8 26.34 -8 25.68 -8 25 C-7.34 24.67 -6.68 24.34 -6 24 C-6 17.73 -6 11.46 -6 5 C-6.99 4.67 -7.98 4.34 -9 4 C-8.67 3.01 -8.34 2.02 -8 1 C-5.17884816 -0.07009208 -3.09455459 0 0 0 Z " fill="#0A0A0A" transform="translate(132,241)"/>
<path d="M0 0 C0 1.65 0 3.3 0 5 C2.64 5 5.28 5 8 5 C8 5.99 8 6.98 8 8 C5.03 8 2.06 8 -1 8 C-0.8595017 10.7920301 -0.71284617 13.58349796 -0.5625 16.375 C-0.52318359 17.1690625 -0.48386719 17.963125 -0.44335938 18.78125 C-0.31106596 23.02601221 -0.31106596 23.02601221 1 27 C3.31 27 5.62 27 8 27 C8 27.66 8 28.32 8 29 C5.08983578 31.31101276 3.5637144 32.02210645 -0.1875 31.875 C-3 31 -3 31 -5 28 C-5.22705078 25.82348633 -5.22705078 25.82348633 -5.1953125 23.33203125 C-5.18886719 22.43935547 -5.18242187 21.54667969 -5.17578125 20.62695312 C-5.15902344 19.69818359 -5.14226562 18.76941406 -5.125 17.8125 C-5.11597656 16.87212891 -5.10695312 15.93175781 -5.09765625 14.96289062 C-5.07409056 12.64167032 -5.04119116 10.32096356 -5 8 C-5.99 8 -6.98 8 -8 8 C-7.65978036 4.82461668 -6.97533396 3.97723135 -4.5625 1.75 C-2 0 -2 0 0 0 Z " fill="#0B0B0B" transform="translate(170,237)"/>
<path d="M0 0 C4.52819552 -0.35515259 7.94900079 -0.53622409 12.0625 1.5625 C14 4 14 4 14.625 7.5 C14 11 14 11 11.875 13.4375 C8.55411242 15.24233021 6.72476949 15.4858395 3 15 C2.01 14.34 1.02 13.68 0 13 C-0.29296875 9.9609375 -0.29296875 9.9609375 -0.1875 6.375 C-0.16042969 5.18648438 -0.13335937 3.99796875 -0.10546875 2.7734375 C-0.07066406 1.85820312 -0.03585938 0.94296875 0 0 Z " fill="#F4F4F4" transform="translate(197,251)"/>
<path d="M0 0 C7.17078925 0.99867156 12.38845095 8.82881269 16.59375 14.28515625 C27.12330496 28.45590446 34.2227865 42.97848703 39 60 C38.01 59.67 37.02 59.34 36 59 C35.02320538 56.51997628 34.2104305 54.10600662 33.4375 51.5625 C28.88053991 37.70975532 21.76925977 24.86735486 12 14 C10.81664062 12.67355469 10.81664062 12.67355469 9.609375 11.3203125 C8.0759564 9.613766 6.53399774 7.91482233 4.98046875 6.2265625 C3.19604427 4.2204048 1.57320055 2.17369666 0 0 Z " fill="#1D1D1D" transform="translate(333,157)"/>
<path d="M0 0 C0.33 7.59 0.66 15.18 1 23 C1.66 23.33 2.32 23.66 3 24 C3 24.66 3 25.32 3 26 C-0.63 26.33 -4.26 26.66 -8 27 C-8 26.01 -8 25.02 -8 24 C-7.34 23.67 -6.68 23.34 -6 23 C-5.67 16.4 -5.34 9.8 -5 3 C-5.99 3 -6.98 3 -8 3 C-8 2.34 -8 1.68 -8 1 C-6 0 -6 0 0 0 Z " fill="#1E1E1E" transform="translate(118,242)"/>
<path d="M0 0 C-0.16113281 0.83015625 -0.32226562 1.6603125 -0.48828125 2.515625 C-1.04406503 6.30004585 -1.1686059 9.92583369 -1.1875 13.75 C-1.20167969 15.06484375 -1.21585938 16.3796875 -1.23046875 17.734375 C-1.3526284 21.08442008 -1.3526284 21.08442008 1 23 C3.06874034 23.6425235 3.06874034 23.6425235 5 24 C5 24.99 5 25.98 5 27 C1.44182091 27.99298021 -0.32973312 28.33513344 -3.6875 26.65625 C-7.19550939 22.62677975 -6.54707859 18.90351111 -6.3125 13.75 C-6.28994141 12.81414062 -6.26738281 11.87828125 -6.24414062 10.9140625 C-6.18530595 8.60774326 -6.10317146 6.30469162 -6 4 C-6.99 4 -7.98 4 -9 4 C-9 3.34 -9 2.68 -9 2 C-5.62902617 0.50178941 -3.79557881 0 0 0 Z " fill="#171717" transform="translate(227,241)"/>
<path d="M0 0 C7.28358209 0.59701493 7.28358209 0.59701493 10 2.125 C11.640169 5.20031687 11.41847417 7.59242459 11 11 C9.4375 13.4375 9.4375 13.4375 7 15 C4.69 15 2.38 15 0 15 C0 10.05 0 5.1 0 0 Z " fill="#F5F5F5" transform="translate(198,233)"/>
<path d="M0 0 C-0.33 7.92 -0.66 15.84 -1 24 C0.32 24 1.64 24 3 24 C3 24.99 3 25.98 3 27 C-0.63 27 -4.26 27 -8 27 C-8 26.34 -8 25.68 -8 25 C-7.34 24.67 -6.68 24.34 -6 24 C-6 17.73 -6 11.46 -6 5 C-6.99 4.67 -7.98 4.34 -9 4 C-8.67 3.01 -8.34 2.02 -8 1 C-1.125 0 -1.125 0 0 0 Z " fill="#0B0B0B" transform="translate(276,241)"/>
<path d="M0 0 C0.495 1.485 0.495 1.485 1 3 C-0.29550781 3.14695312 -1.59101563 3.29390625 -2.92578125 3.4453125 C-14.83247215 4.90870468 -25.82575815 7.3801013 -37.13500977 11.38330078 C-37.75045654 11.58681152 -38.36590332 11.79032227 -39 12 C-39.69730225 12.23315918 -40.39460449 12.46631836 -41.11303711 12.70654297 C-41.73573486 12.80338379 -42.35843262 12.90022461 -43 13 C-43.66 12.34 -44.32 11.68 -45 11 C-30.85047145 4.82116657 -15.61022668 -0.31220453 0 0 Z " fill="#333333" transform="translate(241,124)"/>
<path d="M0 0 C-0.33 0.66 -0.66 1.32 -1 2 C-10.48894948 5.02196402 -19.92888649 5.44247914 -29.8125 5.3125 C-31.05708984 5.31572266 -32.30167969 5.31894531 -33.58398438 5.32226562 C-40.36639172 5.28272854 -46.44997819 4.77735727 -53 3 C-53 2.67 -53 2.34 -53 2 C-51.56503174 2.01571045 -51.56503174 2.01571045 -50.10107422 2.03173828 C-46.4816476 2.06850324 -42.86223669 2.0911013 -39.24267578 2.10986328 C-37.68926195 2.11979437 -36.13586614 2.13334379 -34.58251953 2.15087891 C-25.51568359 2.25051447 -16.88206948 1.96359385 -7.92236328 0.43310547 C-5.22688382 0.03362505 -2.71889949 -0.0798013 0 0 Z " fill="#161616" transform="translate(281,371)"/>
<path d="M0 0 C11.88 0 23.76 0 36 0 C36 0.99 36 1.98 36 3 C24.12 3 12.24 3 0 3 C0 2.01 0 1.02 0 0 Z " fill="#454545" transform="translate(232,210)"/>
<path d="M0 0 C0.66 0 1.32 0 2 0 C1.36599799 4.17817719 -0.97376128 7.37900849 -3.1875 10.875 C-8.85717605 20.06943579 -13.16367203 29.55175931 -16 40 C-16.66 40 -17.32 40 -18 40 C-17.49877774 33.83218165 -16.07457618 28.98210035 -13.5 23.375 C-12.97575439 22.21508545 -12.97575439 22.21508545 -12.44091797 21.03173828 C-9.99210584 15.76727915 -7.24838233 10.76838418 -4.125 5.875 C-3.74408203 5.2773584 -3.36316406 4.6797168 -2.97070312 4.06396484 C-2.04088443 2.66715013 -1.02782319 1.32636105 0 0 Z " fill="#212121" transform="translate(147,176)"/>
<path d="M0 0 C0.38218767 1.65614657 0.71395102 3.32457024 1 5 C0 6 0 6 -2.50390625 6.09765625 C-4.01791016 6.08025391 -4.01791016 6.08025391 -5.5625 6.0625 C-6.57441406 6.05347656 -7.58632813 6.04445312 -8.62890625 6.03515625 C-9.41136719 6.02355469 -10.19382812 6.01195312 -11 6 C-9.40523615 -1.00246308 -6.98805898 -1.45035186 0 0 Z " fill="#E1E1E1" transform="translate(325,245)"/>
<path d="M0 0 C4.20827473 -0.05828635 8.41644489 -0.093693 12.625 -0.125 C14.40970703 -0.15013672 14.40970703 -0.15013672 16.23046875 -0.17578125 C17.38417969 -0.18222656 18.53789062 -0.18867187 19.7265625 -0.1953125 C21.31331787 -0.21102295 21.31331787 -0.21102295 22.93212891 -0.22705078 C26.23363888 0.01729143 28.91412763 0.83117023 32 2 C32 2.33 32 2.66 32 3 C21.11 2.67 10.22 2.34 -1 2 C-0.67 1.34 -0.34 0.68 0 0 Z " fill="#161616" transform="translate(241,124)"/>
<path d="M0 0 C12.34400617 2.98348832 12.34400617 2.98348832 14.37890625 6.13671875 C14.58386719 6.75160156 14.78882813 7.36648437 15 8 C14.3915625 7.82984375 13.783125 7.6596875 13.15625 7.484375 C4.80660164 5.17594281 -3.5909251 3.07852918 -12 1 C-7.84578792 -1.76947472 -4.67125112 -0.92099845 0 0 Z " fill="#252525" transform="translate(282,127)"/>
<path d="M0 0 C1.32 0 2.64 0 4 0 C4.33 1.32 4.66 2.64 5 4 C5.7425 3.34 6.485 2.68 7.25 2 C10 0 10 0 14 0 C13.67 2.97 13.34 5.94 13 9 C12.01 9 11.02 9 10 9 C10 8.01 10 7.02 10 6 C9.21625 6.185625 8.4325 6.37125 7.625 6.5625 C5 7 5 7 3 6 C3 4.35 3 2.7 3 1 C2.01 0.67 1.02 0.34 0 0 Z " fill="#202020" transform="translate(128,241)"/>
<path d="M0 0 C3.96 0 7.92 0 12 0 C11.67 3.3 11.34 6.6 11 10 C10.01 10 9.02 10 8 10 C8 8.02 8 6.04 8 4 C3.545 3.01 3.545 3.01 -1 2 C-0.67 1.34 -0.34 0.68 0 0 Z " fill="#0A0A0A" transform="translate(99,231)"/>
<path d="M0 0 C0.99 0 1.98 0 3 0 C3.66 1.98 4.32 3.96 5 6 C7.97 6.495 7.97 6.495 11 7 C10.67 7.99 10.34 8.98 10 10 C2.25 10.125 2.25 10.125 0 9 C0 6.03 0 3.06 0 0 Z " fill="#252525" transform="translate(333,259)"/>
<path d="M0 0 C0.99 0 1.98 0 3 0 C3.66 1.98 4.32 3.96 5 6 C7.97 6.495 7.97 6.495 11 7 C10.67 7.99 10.34 8.98 10 10 C2.25 10.125 2.25 10.125 0 9 C0 6.03 0 3.06 0 0 Z " fill="#252525" transform="translate(143,259)"/>
<path d="M0 0 C0.79921875 0.01804688 1.5984375 0.03609375 2.421875 0.0546875 C3.02515625 0.07789063 3.6284375 0.10109375 4.25 0.125 C4.25 2.765 4.25 5.405 4.25 8.125 C3.59 8.125 2.93 8.125 2.25 8.125 C1.59 6.805 0.93 5.485 0.25 4.125 C-3.96878192 3.92877759 -6.92010894 4.32269832 -10.75 6.125 C-9.79632051 3.74080127 -9.17010128 2.39032713 -6.96875 1 C-4.47106748 0.01499844 -2.6723318 -0.07859799 0 0 Z " fill="#181818" transform="translate(259.75,240.875)"/>
<path d="M0 0 C0.66 0 1.32 0 2 0 C2.37125 0.969375 2.7425 1.93875 3.125 2.9375 C4.71052362 6.31140969 4.71052362 6.31140969 8.1875 6.875 C9.5796875 6.936875 9.5796875 6.936875 11 7 C10.67 7.99 10.34 8.98 10 10 C2.25 10.125 2.25 10.125 0 9 C0 6.03 0 3.06 0 0 Z " fill="#1C1C1C" transform="translate(248,259)"/>
<path d="M0 0 C0.66 0 1.32 0 2 0 C2.66 1.98 3.32 3.96 4 6 C6.97 6.495 6.97 6.495 10 7 C9.67 7.99 9.34 8.98 9 10 C2.375 10.125 2.375 10.125 -1 9 C-0.67 6.03 -0.34 3.06 0 0 Z " fill="#1E1E1E" transform="translate(354,259)"/>
<path d="M0 0 C2.98313944 0.58826674 5.96048537 1.19462904 8.9375 1.8125 C9.78763672 1.97814453 10.63777344 2.14378906 11.51367188 2.31445312 C12.72700195 2.5706543 12.72700195 2.5706543 13.96484375 2.83203125 C14.7137085 2.98389893 15.46257324 3.1357666 16.23413086 3.29223633 C16.81686768 3.52579834 17.39960449 3.75936035 18 4 C18.33 4.99 18.66 5.98 19 7 C12.21338787 6.21085905 5.63850633 4.58725189 -1 3 C-0.67 2.01 -0.34 1.02 0 0 Z " fill="#333333" transform="translate(212,368)"/>
<path d="M0 0 C2.97 0 5.94 0 9 0 C9.79953138 3.28696233 10.09658936 4.71023192 9 8 C8.34 8 7.68 8 7 8 C7 6.68 7 5.36 7 4 C4.36 3.67 1.72 3.34 -1 3 C-0.67 2.01 -0.34 1.02 0 0 Z " fill="#181818" transform="translate(360,241)"/>
<path d="M0 0 C0.66 0 1.32 0 2 0 C3.70695733 5.65571861 5.39334698 11.31492008 7 17 C5.109375 16.3359375 5.109375 16.3359375 3 15 C1.953125 12.5390625 1.953125 12.5390625 1.25 9.625 C1.00765625 8.66851562 0.7653125 7.71203125 0.515625 6.7265625 C0 4 0 4 0 0 Z " fill="#282828" transform="translate(128,280)"/>
<path d="M0 0 C0.99 0.33 1.98 0.66 3 1 C0.24881027 3.85215083 -2.60315225 6.34358701 -5.75 8.75 C-6.54921875 9.36359375 -7.3484375 9.9771875 -8.171875 10.609375 C-8.77515625 11.06828125 -9.3784375 11.5271875 -10 12 C-10.66 11.34 -11.32 10.68 -12 10 C-10.07254909 8.29965959 -8.13458261 6.61509021 -6.1875 4.9375 C-5.36668945 4.20950195 -5.36668945 4.20950195 -4.52929688 3.46679688 C-3.08389691 2.23163691 -1.54572201 1.10704321 0 0 Z " fill="#232323" transform="translate(177,146)"/>
<path d="M0 0 C0.99 0.33 1.98 0.66 3 1 C4.04409043 3.32640994 4.89690418 5.52749642 5.6875 7.9375 C5.91244141 8.58396484 6.13738281 9.23042969 6.36914062 9.89648438 C8 14.67009403 8 14.67009403 8 17 C7.01 16.67 6.02 16.34 5 16 C3.95590957 13.67359006 3.10309582 11.47250358 2.3125 9.0625 C2.08755859 8.41603516 1.86261719 7.76957031 1.63085938 7.10351562 C0 2.32990597 0 2.32990597 0 0 Z " fill="#212121" transform="translate(364,200)"/>
<path d="M0 0 C0.66 0 1.32 0 2 0 C1.5547115 5.27315333 0.91626837 10.01770224 -1 15 C-1.99 14.67 -2.98 14.34 -4 14 C-3.52188823 12.22888156 -3.0424722 10.45811517 -2.5625 8.6875 C-2.29566406 7.70136719 -2.02882813 6.71523438 -1.75390625 5.69921875 C-1.21920575 3.78482474 -0.62855462 1.88566385 0 0 Z " fill="#353535" transform="translate(370,280)"/>
<path d="M0 0 C0 0.99 0 1.98 0 3 C-3.96 3.99 -7.92 4.98 -12 6 C-12.33 5.01 -12.66 4.02 -13 3 C-11.39743892 2.49487756 -9.79288208 1.99608373 -8.1875 1.5 C-7.29417969 1.2215625 -6.40085937 0.943125 -5.48046875 0.65625 C-3 0 -3 0 0 0 Z " fill="#383838" transform="translate(292,367)"/>
<path d="M0 0 C1.65 0.33 3.3 0.66 5 1 C4.67 2.65 4.34 4.3 4 6 C2.35 5.67 0.7 5.34 -1 5 C-0.67 3.35 -0.34 1.7 0 0 Z " fill="#111111" transform="translate(271,228)"/>
<path d="M0 0 C3.85025879 0.60355408 6.86101159 1.76772603 10.3125 3.5625 C11.19550781 4.01753906 12.07851563 4.47257813 12.98828125 4.94140625 C13.65214844 5.29074219 14.31601562 5.64007813 15 6 C14.34 6.66 13.68 7.32 13 8 C11.01729088 7.04901734 9.03891621 6.08899297 7.0625 5.125 C5.96035156 4.59132812 4.85820312 4.05765625 3.72265625 3.5078125 C1 2 1 2 0 0 Z " fill="#181818" transform="translate(296,133)"/>
<path d="M0 0 C2.0625 0.4375 2.0625 0.4375 4 1 C3.67 2.65 3.34 4.3 3 6 C1.35 5.67 -0.3 5.34 -2 5 C-1.125 1.125 -1.125 1.125 0 0 Z " fill="#101010" transform="translate(114,228)"/>
<path d="M0 0 C3.62613199 0.56959153 5.25517741 1.92374534 7.75 4.5625 C8.36359375 5.20316406 8.9771875 5.84382812 9.609375 6.50390625 C10.06828125 6.99761719 10.5271875 7.49132812 11 8 C10.34 8.66 9.68 9.32 9 10 C7.49702124 8.52386015 5.99768715 7.04400843 4.5 5.5625 C3.6646875 4.73878906 2.829375 3.91507813 1.96875 3.06640625 C0 1 0 1 0 0 Z " fill="#121212" transform="translate(333,157)"/>
<path d="M0 0 C-1.38188453 3.21043882 -2.92421903 5.04936365 -5.625 7.25 C-6.57246094 8.03117188 -6.57246094 8.03117188 -7.5390625 8.828125 C-8.02117187 9.21484375 -8.50328125 9.6015625 -9 10 C-9 7 -9 7 -7.5390625 5.17578125 C-6.90742188 4.56089844 -6.27578125 3.94601563 -5.625 3.3125 C-4.68527344 2.37857422 -4.68527344 2.37857422 -3.7265625 1.42578125 C-2 0 -2 0 0 0 Z " fill="#131313" transform="translate(166,157)"/>
<path d="M0 0 C0.99 0.33 1.98 0.66 3 1 C2.01 3.97 1.02 6.94 0 10 C-0.66 10 -1.32 10 -2 10 C-1.125 2.25 -1.125 2.25 0 0 Z " fill="#2A2A2A" transform="translate(131,206)"/>
<path d="M0 0 C1.4835001 0.42257276 2.96176424 0.86356322 4.4375 1.3125 C5.67306641 1.67794922 5.67306641 1.67794922 6.93359375 2.05078125 C7.95646484 2.52064453 7.95646484 2.52064453 9 3 C9.33 3.99 9.66 4.98 10 6 C6.37 5.01 2.74 4.02 -1 3 C-0.67 2.01 -0.34 1.02 0 0 Z " fill="#343434" transform="translate(287,129)"/>
<path d="M0 0 C-1.5830577 4.2742558 -4.50568404 6.26531794 -8 9 C-8 6 -8 6 -6.7578125 4.39453125 C-5.94957031 3.61142578 -5.94957031 3.61142578 -5.125 2.8125 C-4.59132813 2.28269531 -4.05765625 1.75289063 -3.5078125 1.20703125 C-2 0 -2 0 0 0 Z " fill="#121212" transform="translate(343,334)"/>
<path d="M0 0 C1.32 0 2.64 0 4 0 C4.33 1.32 4.66 2.64 5 4 C5.99 3.01 6.98 2.02 8 1 C8.66 1.33 9.32 1.66 10 2 C9.34 2.66 8.68 3.32 8 4 C8.66 4.66 9.32 5.32 10 6 C5.25 7.125 5.25 7.125 3 6 C3 4.35 3 2.7 3 1 C2.01 0.67 1.02 0.34 0 0 Z " fill="#515151" transform="translate(128,241)"/>
<path d="M0 0 C3.12270126 2.51830747 3.94523098 3.7261549 4.75 7.75 C4.8325 8.8225 4.915 9.895 5 11 C0 4.63636364 0 4.63636364 0 0 Z " fill="#181818" transform="translate(133,296)"/>
<path d="M0 0 C3.7952131 1.49097658 5.61042731 3.75700849 8 7 C5 7 5 7 2.3125 4.625 C0 2 0 2 0 0 Z " fill="#121212" transform="translate(158,335)"/>
<path d="M0 0 C-0.33 0.66 -0.66 1.32 -1 2 C-3.64860427 2.59355614 -6.29197322 2.74209269 -9 3 C-9 2.34 -9 1.68 -9 1 C-5.92677456 0.08941469 -3.19902639 -0.08886184 0 0 Z " fill="#151515" transform="translate(281,371)"/>
<path d="M0 0 C2.62187494 1.04874998 3.79371361 1.64931313 5.25 4.125 C5.4975 4.74375 5.745 5.3625 6 6 C5.01 6 4.02 6 3 6 C0 2.66666667 0 2.66666667 0 0 Z " fill="#222222" transform="translate(343,166)"/>
<path d="M0 0 C0.99 0.33 1.98 0.66 3 1 C1.68 2.32 0.36 3.64 -1 5 C-1.99 4.67 -2.98 4.34 -4 4 C-2.68 2.68 -1.36 1.36 0 0 Z " fill="#1F1F1F" transform="translate(315,243)"/>
<path d="M0 0 C3.65316671 1.24976756 4.78065836 1.67098753 7 5 C4.625 4.75 4.625 4.75 2 4 C0.6875 1.9375 0.6875 1.9375 0 0 Z " fill="#242424" transform="translate(328,152)"/>
<path d="M0 0 C-1.24546405 3.73639216 -2.63404953 4.18756513 -6 6 C-6 5.01 -6 4.02 -6 3 C-2.66666667 0 -2.66666667 0 0 0 Z " fill="#1C1C1C" transform="translate(172,152)"/>
</svg>
